<svg width="30" height="31" viewBox="0 0 30 31" fill="none" xmlns="http://www.w3.org/2000/svg">
<path d="M1.667 0.0229492H28.333C28.7751 0.0229492 29.1991 0.198579 29.5117 0.511202C29.8244 0.823825 30 1.24783 30 1.68995V28.3559C30 28.7981 29.8244 29.2221 29.5117 29.5347C29.1991 29.8473 28.7751 30.0229 28.333 30.0229H1.667C1.22488 30.0229 0.800876 29.8473 0.488253 29.5347C0.17563 29.2221 0 28.7981 0 28.3559V1.68995C0 1.24783 0.17563 0.823825 0.488253 0.511202C0.800876 0.198579 1.22488 0.0229492 1.667 0.0229492V0.0229492ZM23.833 21.5899C23.7539 21.5332 23.6898 21.458 23.6462 21.3708C23.6027 21.2837 23.581 21.1873 23.583 21.0899V8.36595C23.593 8.14716 23.6818 7.93937 23.833 7.78095L25.425 5.93895V5.85595H19.733L15.466 16.6559L10.61 5.85595H4.753V5.93895L6.258 8.03295C6.5555 8.38086 6.70547 8.83114 6.676 9.28795V18.4879C6.75748 19.031 6.67021 19.5861 6.426 20.0779L4.166 23.1779V23.261H10.193V23.1779L7.933 20.1659C7.68205 19.6762 7.59444 19.119 7.683 18.5759V10.2059C7.80023 10.3534 7.88538 10.5237 7.933 10.7059L13.623 23.4279H13.706L19.233 9.62295C19.166 10.1223 19.1382 10.6262 19.15 11.1299V21.0049C19.1529 21.1147 19.132 21.2238 19.0889 21.3247C19.0457 21.4257 18.9813 21.5162 18.9 21.5899L17.225 23.1799V23.2629H25.425V23.1799L23.835 21.5899H23.833Z" fill="white"/>
</svg>
