<svg width="40" height="41" viewBox="0 0 40 41" fill="none" xmlns="http://www.w3.org/2000/svg">
<path d="M36.937 9.44999C35.6658 10.0136 34.3176 10.3844 32.937 10.55C34.3935 9.67905 35.4835 8.30821 36.004 6.69299C34.6344 7.5051 33.1357 8.07638 31.573 8.38199C30.524 7.25939 29.1335 6.51484 27.6177 6.26411C26.1019 6.01337 24.5457 6.2705 23.1912 6.99553C21.8366 7.72055 20.7595 8.87283 20.1274 10.2732C19.4953 11.6736 19.3437 13.2435 19.696 14.739C16.9246 14.5999 14.2134 13.8795 11.7384 12.6247C9.26346 11.3698 7.08007 9.60845 5.33 7.45499C4.43917 8.98962 4.16625 10.8059 4.56675 12.5346C4.96724 14.2632 6.01107 15.7745 7.486 16.761C6.3792 16.7261 5.29679 16.4271 4.329 15.889V15.976C4.32925 17.5853 4.88596 19.1449 5.90476 20.3906C6.92357 21.6363 8.34177 22.4914 9.919 22.811C8.892 23.0892 7.81519 23.1303 6.77 22.931C7.21496 24.3171 8.08249 25.5293 9.251 26.3976C10.4195 27.2659 11.8304 27.7469 13.286 27.773C11.8398 28.9089 10.1839 29.7486 8.41291 30.244C6.64193 30.7394 4.79066 30.8807 2.965 30.66C6.15111 32.7089 9.85997 33.7965 13.648 33.793C26.47 33.793 33.481 23.171 33.481 13.96C33.481 13.66 33.473 13.36 33.459 13.06C34.8236 12.0737 36.0014 10.8519 36.937 9.45199V9.44999Z" fill="white"/>
</svg>
