<svg width="40" height="41" viewBox="0 0 40 41" fill="none" xmlns="http://www.w3.org/2000/svg">
<path d="M16.793 18.356C17.0221 18.3391 17.2523 18.3697 17.4691 18.4458C17.6859 18.5219 17.8847 18.6419 18.053 18.7983C18.2213 18.9547 18.3555 19.1441 18.4474 19.3548C18.5392 19.5654 18.5865 19.7927 18.5865 20.0225C18.5865 20.2522 18.5392 20.4795 18.4474 20.6901C18.3555 20.9008 18.2213 21.0902 18.053 21.2466C17.8847 21.403 17.6859 21.523 17.4691 21.5991C17.2523 21.6752 17.0221 21.7058 16.793 21.689C16.5639 21.7058 16.3337 21.6752 16.1169 21.5991C15.9001 21.523 15.7013 21.403 15.533 21.2466C15.3647 21.0902 15.2304 20.9008 15.1386 20.6901C15.0468 20.4795 14.9994 20.2522 14.9994 20.0225C14.9994 19.7927 15.0468 19.5654 15.1386 19.3548C15.2304 19.1441 15.3647 18.9547 15.533 18.7983C15.7013 18.6419 15.9001 18.5219 16.1169 18.4458C16.3337 18.3697 16.5639 18.3391 16.793 18.356V18.356ZM23.206 18.356C23.5305 18.3795 23.841 18.4973 24.0995 18.6948C24.358 18.8923 24.5532 19.161 24.6612 19.4678C24.7692 19.7747 24.7853 20.1064 24.7075 20.4223C24.6297 20.7382 24.4613 21.0245 24.2231 21.246C23.9849 21.4676 23.6872 21.6149 23.3666 21.6697C23.0459 21.7245 22.7162 21.6845 22.4179 21.5546C22.1197 21.4248 21.8658 21.2107 21.6874 20.9386C21.5091 20.6665 21.4141 20.3483 21.414 20.023C21.422 19.7957 21.4747 19.5722 21.5692 19.3654C21.6637 19.1585 21.7981 18.9723 21.9646 18.8175C22.1312 18.6626 22.3267 18.5421 22.5398 18.4629C22.753 18.3838 22.9797 18.3474 23.207 18.356H23.206ZM31.485 3.35596C31.9525 3.36183 32.4143 3.45974 32.844 3.64409C33.2736 3.82844 33.6628 4.09563 33.9892 4.43039C34.3156 4.76516 34.5729 5.16094 34.7463 5.59514C34.9197 6.02933 35.0059 6.49344 35 6.96096V38.356L31.315 35.031L29.24 33.071L27.045 30.988L27.955 34.226H8.515C8.04748 34.2201 7.5857 34.1222 7.15603 33.9378C6.72635 33.7535 6.3372 33.4863 6.01079 33.1515C5.68439 32.8168 5.42712 32.421 5.25369 31.9868C5.08026 31.5526 4.99405 31.0885 5 30.621V6.96096C4.99405 6.49344 5.08026 6.02933 5.25369 5.59514C5.42712 5.16094 5.68439 4.76516 6.01079 4.43039C6.3372 4.09563 6.72635 3.82844 7.15603 3.64409C7.5857 3.45974 8.04748 3.36183 8.515 3.35596H31.483H31.485ZM24.868 26.211C25.8938 26.2326 26.9091 26.0013 27.8243 25.5374C28.7394 25.0734 29.5262 24.3912 30.115 23.551C30.0609 20.0095 29.217 16.5248 27.645 13.351C26.2727 12.2468 24.587 11.604 22.828 11.514L22.588 11.794C24.1535 12.2207 25.609 12.9788 26.856 14.017C25.2644 13.1203 23.5104 12.5492 21.696 12.337C20.545 12.2068 19.3823 12.2179 18.234 12.37C18.1358 12.3733 18.0382 12.385 17.942 12.405C16.5941 12.5608 15.2801 12.9322 14.05 13.505C13.417 13.805 13.038 14.013 13.038 14.013C14.3518 12.9234 15.8917 12.1401 17.546 11.72L17.374 11.51C15.6149 11.6002 13.9291 12.2434 12.557 13.348C10.9856 16.522 10.1425 20.0067 10.089 23.548C10.6731 24.3884 11.4563 25.0712 12.3685 25.5353C13.2808 25.9995 14.2937 26.2306 15.317 26.208C15.317 26.208 15.95 25.421 16.467 24.756C15.2558 24.4396 14.194 23.7081 13.467 22.689C13.6212 22.7969 13.7807 22.897 13.945 22.989C13.964 23.0106 13.9871 23.0282 14.013 23.041C14.065 23.078 14.113 23.094 14.168 23.129C14.5704 23.3574 14.9881 23.5578 15.418 23.729C16.2336 24.0573 17.0779 24.3094 17.94 24.482C19.4055 24.7693 20.9123 24.7751 22.38 24.499C23.2349 24.3463 24.0689 24.0939 24.865 23.747C25.5593 23.4783 26.2208 23.1318 26.837 22.714C26.0831 23.7537 24.9845 24.4919 23.737 24.797C24.252 25.462 24.87 26.214 24.87 26.214L24.868 26.211Z" fill="white"/>
</svg>
