<svg width="618" height="628" viewBox="0 0 618 628" fill="none" xmlns="http://www.w3.org/2000/svg">
<path fill-rule="evenodd" clip-rule="evenodd" d="M22.0937 364.323C72.5284 522.638 149.521 609.576 253.073 625.137C447.924 643.193 572.294 571.212 581.794 409.194C587.97 354.673 589.562 338.88 607.328 277.772C656.806 82.3401 523.989 -43.3279 358.247 15.5991C326.118 27.3091 277.594 32.4341 197.766 38.6521C18.3107 53.6561 -34.1843 181.766 22.0937 364.323Z" fill="#111B37"/>
<path fill-rule="evenodd" clip-rule="evenodd" d="M133.215 511.799C133.215 512.386 133.33 512.968 133.555 513.51C133.78 514.053 134.109 514.546 134.524 514.961C134.939 515.377 135.432 515.706 135.975 515.931C136.517 516.155 137.099 516.271 137.686 516.271C138.273 516.271 138.855 516.155 139.397 515.931C139.94 515.706 140.432 515.377 140.848 514.961C141.263 514.546 141.592 514.053 141.817 513.51C142.041 512.968 142.157 512.386 142.157 511.799C142.156 510.614 141.685 509.478 140.846 508.64C140.008 507.803 138.871 507.333 137.686 507.333C136.501 507.333 135.364 507.803 134.526 508.64C133.687 509.478 133.216 510.614 133.215 511.799" fill="white"/>
<path fill-rule="evenodd" clip-rule="evenodd" d="M540.439 248.407C540.439 243.235 538.384 238.275 534.728 234.618C531.071 230.961 526.111 228.907 520.939 228.907C515.767 228.907 510.807 230.961 507.15 234.618C503.493 238.275 501.439 243.235 501.439 248.407C501.439 253.579 503.493 258.539 507.15 262.196C510.807 265.853 515.767 267.907 520.939 267.907C526.111 267.907 531.071 265.853 534.728 262.196C538.384 258.539 540.439 253.579 540.439 248.407" fill="#1E2947"/>
<path fill-rule="evenodd" clip-rule="evenodd" d="M559.727 339.626C559.727 336.931 558.656 334.346 556.75 332.44C554.844 330.535 552.259 329.464 549.564 329.464C546.869 329.464 544.284 330.535 542.378 332.44C540.472 334.346 539.401 336.931 539.401 339.626C539.401 342.321 540.472 344.907 542.378 346.812C544.283 348.718 546.868 349.789 549.564 349.789C552.259 349.789 554.844 348.718 556.75 346.812C558.656 344.907 559.727 342.321 559.727 339.626Z" fill="#1E2947"/>
<path fill-rule="evenodd" clip-rule="evenodd" d="M100.119 467.858C100.119 471.499 101.565 474.99 104.14 477.564C106.714 480.138 110.205 481.584 113.846 481.584C115.648 481.584 117.434 481.23 119.099 480.54C120.765 479.85 122.278 478.839 123.553 477.565C124.828 476.29 125.839 474.777 126.529 473.111C127.219 471.446 127.575 469.661 127.575 467.858C127.575 466.055 127.219 464.27 126.529 462.605C125.839 460.939 124.828 459.426 123.553 458.152C122.278 456.877 120.765 455.866 119.099 455.176C117.434 454.487 115.648 454.132 113.846 454.132C112.043 454.132 110.258 454.487 108.592 455.176C106.927 455.866 105.413 456.877 104.138 458.152C102.863 459.426 101.852 460.939 101.162 462.605C100.472 464.27 100.117 466.055 100.117 467.858" fill="#1E2947"/>
<path fill-rule="evenodd" clip-rule="evenodd" d="M523.635 497.645C523.635 493.661 522.052 489.841 519.235 487.024C516.418 484.207 512.598 482.624 508.614 482.624C504.63 482.625 500.81 484.207 497.993 487.024C495.176 489.841 493.593 493.661 493.593 497.645C493.593 501.629 495.176 505.449 497.993 508.266C500.81 511.083 504.63 512.665 508.614 512.666C512.598 512.666 516.418 511.083 519.235 508.266C522.052 505.449 523.635 501.629 523.635 497.645" fill="#1E2947"/>
</svg>
