<svg width="958" height="705" viewBox="0 0 958 705" fill="none" xmlns="http://www.w3.org/2000/svg">
<g clip-path="url(#clip0_36_935)">
<path d="M421.927 337.847L439.927 545.791C439.927 551.611 434.872 556.171 429.089 555.523C421.82 554.709 416.642 563.592 409.569 562.185C300.946 540.575 216.968 450.536 204.468 338.903C203.82 333.119 208.38 328.065 214.2 328.065H412.144C417.547 328.064 421.927 332.444 421.927 337.847V337.847Z" fill="#FECE85"/>
<path d="M441.926 337.844V555.794C441.926 561.614 436.876 566.174 431.086 565.524C423.816 564.714 416.636 563.594 409.566 562.184C411.026 560.474 411.926 558.244 411.926 555.794V337.844C411.926 332.444 407.546 328.064 402.146 328.064H432.146C437.546 328.064 441.926 332.444 441.926 337.844V337.844Z" fill="#FDB441"/>
<path d="M431.927 119.779L421.927 282.058C421.927 287.461 417.547 291.841 412.144 291.841H402.204H259.865C254.015 291.841 249.431 286.735 250.143 280.928C260.833 193.662 325.587 123.098 409.878 103.763C416.798 102.176 413.851 110.933 421.015 110.056C426.821 109.345 431.927 113.929 431.927 119.779V119.779Z" fill="#1E2947"/>
<path d="M441.926 109.774V282.054C441.926 287.464 437.546 291.844 432.146 291.844H402.146C407.546 291.844 411.926 287.464 411.926 282.054V109.774C411.926 107.504 411.156 105.424 409.876 103.764C416.796 102.174 423.846 100.934 431.016 100.054C436.816 99.3442 441.926 103.924 441.926 109.774V109.774Z" fill="#171F37"/>
<path d="M595.184 291.841H586.786H487.934C482.531 291.841 478.151 287.461 478.151 282.058V154.808C478.151 152.799 478.752 150.946 479.775 149.406C481.781 146.386 485.411 146.566 489.314 147.114C559.491 156.971 595.021 210.501 604.878 280.678C605.705 286.572 601.135 291.841 595.184 291.841V291.841Z" fill="#8648E4"/>
<path d="M615.188 291.844H585.188C591.138 291.844 595.708 286.574 594.878 280.674C585.998 217.474 540.078 166.154 479.778 149.384C481.788 146.374 485.418 144.564 489.318 145.114C559.488 154.974 615.018 210.504 624.878 280.674C625.708 286.574 621.138 291.844 615.188 291.844V291.844Z" fill="#7D3EDE"/>
<path d="M654.839 338.979C643.079 436.03 586.115 510.994 489.064 522.753C485.52 523.182 482.238 523.646 480.217 521.053C478.926 519.397 478.15 517.31 478.15 515.029V337.848C478.15 332.445 482.53 328.065 487.933 328.065H645.114C650.965 328.065 655.543 333.171 654.839 338.979V338.979Z" fill="#F2E8FF"/>
<path d="M674.838 338.975C663.078 436.025 586.118 512.995 489.068 524.755C485.548 525.175 482.278 523.665 480.258 521.095C567.148 501.495 633.948 428.845 644.838 338.975C645.538 333.175 640.968 328.065 635.118 328.065H665.118C670.968 328.065 675.538 333.175 674.838 338.975Z" fill="#DDC6FB"/>
<path d="M665.163 127.226C665.163 139.066 657.565 146.664 645.725 146.664C642.115 146.664 638.713 147.771 635.728 146.195C628.925 142.602 624.288 135.456 624.288 127.226C624.288 119.086 628.825 112.006 635.507 108.376C638.545 106.726 642.025 107.789 645.725 107.789C657.565 107.788 665.163 115.386 665.163 127.226V127.226Z" fill="#8648E4"/>
<path d="M667.159 127.224C667.159 139.064 657.569 148.664 645.729 148.664C642.119 148.664 638.709 147.774 635.729 146.184C642.529 142.594 647.159 135.454 647.159 127.224C647.159 118.994 642.529 111.854 635.729 108.264C638.709 106.674 642.119 105.784 645.729 105.784C657.569 105.784 667.159 115.384 667.159 127.224Z" fill="#7D3EDE"/>
<path d="M443.585 96.8112C439.895 93.5452 434.986 92.0142 430.102 92.6122C383.755 98.2892 339.92 119.364 306.319 152.041L273.565 119.287C270.342 116.066 266.058 114.291 261.503 114.291H217.913C213.77 114.291 210.413 117.649 210.413 121.791C210.413 125.933 213.77 129.291 217.913 129.291H261.503C262.045 129.291 262.576 129.511 262.959 129.894L295.938 162.873C266.792 195.51 248.008 236.664 242.698 280.017C242.1 284.895 243.632 289.809 246.897 293.5C250.182 297.212 254.909 299.341 259.865 299.341H371.798C375.941 299.341 379.298 295.983 379.298 291.841C379.298 287.699 375.941 284.341 371.798 284.341H259.864C258.957 284.341 258.387 283.851 258.129 283.558C257.827 283.217 257.488 282.642 257.586 281.84C262.491 241.794 279.758 203.757 306.558 173.493L359.634 226.57C361.099 228.034 363.019 228.767 364.938 228.767C366.857 228.767 368.777 228.035 370.242 226.57C373.171 223.641 373.171 218.892 370.242 215.963L316.926 162.647C348.169 132.326 388.885 112.772 431.926 107.5C432.732 107.403 433.303 107.741 433.645 108.043C433.937 108.302 434.427 108.871 434.427 109.778V282.057C434.427 283.316 433.403 284.34 432.144 284.34H404.485C400.342 284.34 396.985 287.698 396.985 291.84C396.985 295.982 400.342 299.34 404.485 299.34H432.144C441.674 299.34 449.427 291.587 449.427 282.057V109.779C449.427 104.823 447.298 100.096 443.585 96.8112Z" fill="black"/>
<path d="M487.933 299.341H615.183C620.188 299.341 624.943 297.174 628.228 293.395C631.515 289.613 633 284.598 632.303 279.635C627.621 246.303 612.991 216.059 591.538 192.017L631.274 152.281C635.53 154.745 640.463 156.163 645.723 156.163C661.679 156.163 674.661 143.182 674.661 127.225C674.661 111.269 661.68 98.2883 645.723 98.2883C629.767 98.2883 616.785 111.27 616.785 127.225C616.785 132.486 618.203 137.418 620.666 141.674L581.058 181.282C556.542 158.288 525.13 142.572 490.354 137.687C485.387 136.988 480.375 138.476 476.594 141.764C472.816 145.049 470.649 149.804 470.649 154.809V282.059C470.65 291.588 478.403 299.341 487.933 299.341V299.341ZM645.724 113.288C653.41 113.288 659.662 119.541 659.662 127.226C659.662 134.912 653.41 141.164 645.724 141.164C638.038 141.164 631.786 134.912 631.786 127.226C631.786 119.541 638.038 113.288 645.724 113.288ZM485.65 154.808C485.65 153.903 486.143 153.339 486.437 153.084C486.695 152.86 487.208 152.518 487.934 152.518C488.041 152.518 488.153 152.525 488.269 152.542C519.749 156.964 548.202 171.137 570.46 191.882L531.022 231.32C528.093 234.249 528.093 238.998 531.022 241.926C532.487 243.39 534.407 244.123 536.326 244.123C538.245 244.123 540.165 243.391 541.63 241.926L580.923 202.632C600.134 224.406 613.231 251.686 617.45 281.722C617.577 282.626 617.165 283.258 616.907 283.554C616.652 283.847 616.089 284.341 615.183 284.341H487.933C486.674 284.341 485.65 283.317 485.65 282.058V154.808Z" fill="black"/>
<path d="M299.521 414.409H391.5C395.643 414.409 399 411.051 399 406.909C399 402.767 395.643 399.409 391.5 399.409H299.521C295.378 399.409 292.021 402.767 292.021 406.909C292.021 411.051 295.379 414.409 299.521 414.409V414.409Z" fill="black"/>
<path d="M299.521 454.449H391.5C395.643 454.449 399 451.091 399 446.949C399 442.807 395.643 439.449 391.5 439.449H299.521C295.378 439.449 292.021 442.807 292.021 446.949C292.021 451.092 295.379 454.449 299.521 454.449V454.449Z" fill="black"/>
<path d="M241.2 576.501L304.213 453.447C307.052 447.904 306.363 441.883 302.676 439.995C298.989 438.107 293.7 441.068 290.862 446.61L227.849 569.664C225.011 575.207 225.7 581.228 229.387 583.116C233.074 585.005 238.363 582.042 241.2 576.501V576.501Z" fill="black"/>
<path d="M432.143 320.564H214.199C209.281 320.564 204.58 322.668 201.3 326.335C198.033 329.989 196.47 334.874 197.015 339.737C202.964 392.876 224.658 442.414 259.75 482.995C262.46 486.129 267.197 486.471 270.328 483.762C273.462 481.053 273.806 476.317 271.096 473.183C237.995 434.904 217.533 388.182 211.921 338.067C211.83 337.253 212.176 336.675 212.482 336.333C212.739 336.046 213.303 335.563 214.2 335.563H432.144C433.403 335.563 434.427 336.587 434.427 337.846V555.79C434.427 556.686 433.945 557.251 433.657 557.509C433.314 557.815 432.73 558.16 431.923 558.069C380.165 552.274 332.241 530.753 293.332 495.833C290.248 493.067 285.508 493.323 282.74 496.406C279.973 499.488 280.23 504.231 283.312 506.997C324.561 544.016 375.373 566.831 430.253 572.976C430.889 573.047 431.526 573.083 432.16 573.083C436.373 573.083 440.479 571.531 443.655 568.69C447.322 565.41 449.426 560.709 449.426 555.791V337.847C449.427 328.318 441.674 320.564 432.143 320.564V320.564Z" fill="black"/>
<path d="M241.687 161.465C245.83 161.465 249.187 158.107 249.187 153.965C249.187 149.823 245.83 146.465 241.687 146.465H217.913C213.77 146.465 210.413 149.823 210.413 153.965C210.413 158.107 213.77 161.465 217.913 161.465H241.687Z" fill="black"/>
<path d="M708.907 501.469C708.907 497.327 705.55 493.969 701.407 493.969H657.817C657.266 493.969 656.749 493.755 656.36 493.365L625.557 462.562C656.716 428.684 676.76 385.464 682.284 339.879C682.875 334.999 681.34 330.084 678.071 326.396C674.787 322.69 670.064 320.564 665.114 320.564H553.517C549.374 320.564 546.017 323.922 546.017 328.064C546.017 332.206 549.374 335.564 553.517 335.564H665.115C666.019 335.564 666.588 336.053 666.846 336.344C667.15 336.687 667.492 337.266 667.394 338.074C662.272 380.344 643.741 420.435 614.938 451.941L559.685 396.688C556.755 393.759 552.007 393.759 549.078 396.688C546.149 399.617 546.149 404.366 549.078 407.295L604.413 462.63C572.556 492.699 531.506 512.054 488.162 517.306C487.362 517.407 486.775 517.063 486.432 516.759C486.141 516.501 485.652 515.932 485.652 515.028V337.848C485.652 336.589 486.677 335.565 487.935 335.565H520.832C524.975 335.565 528.332 332.207 528.332 328.065C528.332 323.923 524.975 320.565 520.832 320.565H487.935C478.405 320.565 470.652 328.318 470.652 337.848V515.029C470.652 519.979 472.778 524.702 476.484 527.987C479.653 530.795 483.726 532.323 487.905 532.323C488.591 532.323 489.28 532.282 489.967 532.199C536.626 526.545 580.803 505.672 615.025 473.244L645.754 503.973C648.977 507.196 653.261 508.97 657.818 508.97H701.408C705.55 508.969 708.907 505.611 708.907 501.469V501.469Z" fill="black"/>
<path d="M701.408 520.397H677.633C673.49 520.397 670.133 523.755 670.133 527.897C670.133 532.039 673.49 535.397 677.633 535.397H701.408C705.551 535.397 708.908 532.039 708.908 527.897C708.908 523.755 705.551 520.397 701.408 520.397Z" fill="black"/>
</g>
<path d="M163.433 697.114V694.482C165.113 693.362 166.532 692.344 167.689 691.43C168.865 690.496 169.808 689.638 170.517 688.854C171.245 688.051 171.768 687.295 172.085 686.586C172.421 685.876 172.589 685.167 172.589 684.458C172.589 683.599 172.328 682.899 171.805 682.358C171.283 681.798 170.545 681.518 169.593 681.518C168.548 681.518 167.727 681.872 167.129 682.582C166.551 683.291 166.233 684.299 166.177 685.606L162.845 684.346C162.939 683.076 163.275 682.003 163.853 681.126C164.451 680.23 165.253 679.548 166.261 679.082C167.288 678.596 168.473 678.354 169.817 678.354C170.937 678.354 171.908 678.512 172.729 678.83C173.569 679.147 174.269 679.586 174.829 680.146C175.389 680.687 175.8 681.312 176.061 682.022C176.341 682.731 176.481 683.468 176.481 684.234C176.481 685.428 176.183 686.558 175.585 687.622C175.007 688.686 174.111 689.74 172.897 690.786C171.684 691.831 170.144 692.932 168.277 694.09V694.118C168.557 694.099 168.893 694.08 169.285 694.062C169.696 694.043 170.116 694.034 170.545 694.034C170.975 694.015 171.348 694.006 171.665 694.006H176.761V697.114H163.433ZM182.048 692.83C182.646 692.83 183.14 692.979 183.532 693.278C183.924 693.558 184.223 693.94 184.428 694.426C184.634 694.892 184.736 695.415 184.736 695.994C184.736 696.759 184.578 697.496 184.26 698.206C183.962 698.915 183.542 699.55 183 700.11C182.459 700.67 181.843 701.108 181.152 701.426L179.472 700.11C179.995 699.904 180.462 699.652 180.872 699.354C181.302 699.055 181.666 698.719 181.964 698.346C182.263 697.972 182.478 697.59 182.608 697.198L182.468 697.114C182.375 697.17 182.263 697.216 182.132 697.254C182.002 697.31 181.815 697.338 181.572 697.338C181.274 697.338 180.975 697.263 180.676 697.114C180.378 696.946 180.126 696.712 179.92 696.414C179.715 696.096 179.612 695.704 179.612 695.238C179.612 694.734 179.724 694.304 179.948 693.95C180.172 693.595 180.471 693.324 180.844 693.138C181.218 692.932 181.619 692.83 182.048 692.83ZM194.039 697.394C192.415 697.394 191.043 697.058 189.923 696.386C188.822 695.714 187.917 694.687 187.207 693.306L190.679 691.57C190.922 692.391 191.305 693.054 191.827 693.558C192.35 694.062 193.115 694.314 194.123 694.314C194.814 694.314 195.402 694.192 195.887 693.95C196.373 693.707 196.746 693.352 197.007 692.886C197.287 692.419 197.427 691.85 197.427 691.178C197.427 690.506 197.297 689.946 197.035 689.498C196.793 689.031 196.438 688.686 195.971 688.462C195.505 688.219 194.917 688.098 194.207 688.098C193.722 688.098 193.265 688.144 192.835 688.238C192.425 688.331 192.051 688.48 191.715 688.686C191.379 688.872 191.081 689.124 190.819 689.442L187.795 688.882L188.943 678.634H200.115V681.742H191.855L191.295 686.25L191.211 686.614H191.267C191.659 686.166 192.191 685.82 192.863 685.578C193.554 685.335 194.338 685.214 195.215 685.214C196.429 685.214 197.465 685.456 198.323 685.942C199.182 686.427 199.845 687.108 200.311 687.986C200.778 688.844 201.011 689.834 201.011 690.954C201.011 692.018 200.834 692.96 200.479 693.782C200.125 694.584 199.621 695.256 198.967 695.798C198.333 696.32 197.595 696.722 196.755 697.002C195.915 697.263 195.01 697.394 194.039 697.394ZM211.232 697.394C208.861 697.394 207.032 696.591 205.744 694.986C204.475 693.38 203.84 691.01 203.84 687.874C203.84 684.738 204.475 682.367 205.744 680.762C207.032 679.156 208.861 678.354 211.232 678.354C213.603 678.354 215.423 679.156 216.692 680.762C217.98 682.367 218.624 684.738 218.624 687.874C218.624 691.01 217.98 693.38 216.692 694.986C215.423 696.591 213.603 697.394 211.232 697.394ZM211.232 694.286C212.035 694.286 212.688 694.062 213.192 693.614C213.715 693.147 214.107 692.447 214.368 691.514C214.629 690.562 214.76 689.348 214.76 687.874C214.76 686.399 214.629 685.195 214.368 684.262C214.107 683.31 213.715 682.61 213.192 682.162C212.688 681.695 212.035 681.462 211.232 681.462C210.429 681.462 209.767 681.695 209.244 682.162C208.721 682.61 208.329 683.31 208.068 684.262C207.825 685.195 207.704 686.399 207.704 687.874C207.704 689.348 207.825 690.562 208.068 691.514C208.329 692.447 208.721 693.147 209.244 693.614C209.767 694.062 210.429 694.286 211.232 694.286ZM229.033 697.394C226.662 697.394 224.833 696.591 223.545 694.986C222.276 693.38 221.641 691.01 221.641 687.874C221.641 684.738 222.276 682.367 223.545 680.762C224.833 679.156 226.662 678.354 229.033 678.354C231.404 678.354 233.224 679.156 234.493 680.762C235.781 682.367 236.425 684.738 236.425 687.874C236.425 691.01 235.781 693.38 234.493 694.986C233.224 696.591 231.404 697.394 229.033 697.394ZM229.033 694.286C229.836 694.286 230.489 694.062 230.993 693.614C231.516 693.147 231.908 692.447 232.169 691.514C232.43 690.562 232.561 689.348 232.561 687.874C232.561 686.399 232.43 685.195 232.169 684.262C231.908 683.31 231.516 682.61 230.993 682.162C230.489 681.695 229.836 681.462 229.033 681.462C228.23 681.462 227.568 681.695 227.045 682.162C226.522 682.61 226.13 683.31 225.869 684.262C225.626 685.195 225.505 686.399 225.505 687.874C225.505 689.348 225.626 690.562 225.869 691.514C226.13 692.447 226.522 693.147 227.045 693.614C227.568 694.062 228.23 694.286 229.033 694.286ZM241.412 692.83C242.009 692.83 242.504 692.979 242.896 693.278C243.288 693.558 243.586 693.94 243.792 694.426C243.997 694.892 244.1 695.415 244.1 695.994C244.1 696.759 243.941 697.496 243.624 698.206C243.325 698.915 242.905 699.55 242.364 700.11C241.822 700.67 241.206 701.108 240.516 701.426L238.836 700.11C239.358 699.904 239.825 699.652 240.236 699.354C240.665 699.055 241.029 698.719 241.328 698.346C241.626 697.972 241.841 697.59 241.972 697.198L241.832 697.114C241.738 697.17 241.626 697.216 241.496 697.254C241.365 697.31 241.178 697.338 240.936 697.338C240.637 697.338 240.338 697.263 240.04 697.114C239.741 696.946 239.489 696.712 239.284 696.414C239.078 696.096 238.976 695.704 238.976 695.238C238.976 694.734 239.088 694.304 239.312 693.95C239.536 693.595 239.834 693.324 240.208 693.138C240.581 692.932 240.982 692.83 241.412 692.83ZM253.888 697.394C251.518 697.394 249.688 696.591 248.4 694.986C247.131 693.38 246.496 691.01 246.496 687.874C246.496 684.738 247.131 682.367 248.4 680.762C249.688 679.156 251.518 678.354 253.888 678.354C256.259 678.354 258.079 679.156 259.348 680.762C260.636 682.367 261.28 684.738 261.28 687.874C261.28 691.01 260.636 693.38 259.348 694.986C258.079 696.591 256.259 697.394 253.888 697.394ZM253.888 694.286C254.691 694.286 255.344 694.062 255.848 693.614C256.371 693.147 256.763 692.447 257.024 691.514C257.286 690.562 257.416 689.348 257.416 687.874C257.416 686.399 257.286 685.195 257.024 684.262C256.763 683.31 256.371 682.61 255.848 682.162C255.344 681.695 254.691 681.462 253.888 681.462C253.086 681.462 252.423 681.695 251.9 682.162C251.378 682.61 250.986 683.31 250.724 684.262C250.482 685.195 250.36 686.399 250.36 687.874C250.36 689.348 250.482 690.562 250.724 691.514C250.986 692.447 251.378 693.147 251.9 693.614C252.423 694.062 253.086 694.286 253.888 694.286ZM271.689 697.394C269.318 697.394 267.489 696.591 266.201 694.986C264.932 693.38 264.297 691.01 264.297 687.874C264.297 684.738 264.932 682.367 266.201 680.762C267.489 679.156 269.318 678.354 271.689 678.354C274.06 678.354 275.88 679.156 277.149 680.762C278.437 682.367 279.081 684.738 279.081 687.874C279.081 691.01 278.437 693.38 277.149 694.986C275.88 696.591 274.06 697.394 271.689 697.394ZM271.689 694.286C272.492 694.286 273.145 694.062 273.649 693.614C274.172 693.147 274.564 692.447 274.825 691.514C275.086 690.562 275.217 689.348 275.217 687.874C275.217 686.399 275.086 685.195 274.825 684.262C274.564 683.31 274.172 682.61 273.649 682.162C273.145 681.695 272.492 681.462 271.689 681.462C270.886 681.462 270.224 681.695 269.701 682.162C269.178 682.61 268.786 683.31 268.525 684.262C268.282 685.195 268.161 686.399 268.161 687.874C268.161 689.348 268.282 690.562 268.525 691.514C268.786 692.447 269.178 693.147 269.701 693.614C270.224 694.062 270.886 694.286 271.689 694.286ZM289.49 697.394C287.119 697.394 285.29 696.591 284.002 694.986C282.733 693.38 282.098 691.01 282.098 687.874C282.098 684.738 282.733 682.367 284.002 680.762C285.29 679.156 287.119 678.354 289.49 678.354C291.861 678.354 293.681 679.156 294.95 680.762C296.238 682.367 296.882 684.738 296.882 687.874C296.882 691.01 296.238 693.38 294.95 694.986C293.681 696.591 291.861 697.394 289.49 697.394ZM289.49 694.286C290.293 694.286 290.946 694.062 291.45 693.614C291.973 693.147 292.365 692.447 292.626 691.514C292.887 690.562 293.018 689.348 293.018 687.874C293.018 686.399 292.887 685.195 292.626 684.262C292.365 683.31 291.973 682.61 291.45 682.162C290.946 681.695 290.293 681.462 289.49 681.462C288.687 681.462 288.025 681.695 287.502 682.162C286.979 682.61 286.587 683.31 286.326 684.262C286.083 685.195 285.962 686.399 285.962 687.874C285.962 689.348 286.083 690.562 286.326 691.514C286.587 692.447 286.979 693.147 287.502 693.614C288.025 694.062 288.687 694.286 289.49 694.286Z" fill="#8648E5"/>
<path d="M43.4602 653.336L52.7722 639.032L53.3482 638.168C54.5642 636.344 55.4602 634.824 56.0362 633.608C56.6122 632.36 56.9002 631.064 56.9002 629.72C56.9002 628.632 56.6762 627.816 56.2282 627.272C55.8122 626.696 55.2042 626.408 54.4042 626.408C53.1882 626.408 52.3402 626.888 51.8602 627.848C51.3802 628.776 51.1402 630.072 51.1402 631.736V633.656H43.3642V631.592C43.3642 627.944 44.2442 625.032 46.0042 622.856C47.7962 620.68 50.5482 619.592 54.2602 619.592C57.6842 619.592 60.2922 620.488 62.0842 622.28C63.9082 624.072 64.8202 626.6 64.8202 629.864C64.8202 631.336 64.5802 632.728 64.1002 634.04C63.6522 635.352 63.1082 636.536 62.4682 637.592C61.8282 638.648 60.8362 640.152 59.4922 642.104L52.3882 652.712H63.7642V659H43.4602V653.336ZM78.3884 659.72C75.6364 659.72 73.5244 659.24 72.0524 658.28C70.5804 657.288 69.5724 655.928 69.0284 654.2C68.4844 652.472 68.2124 650.28 68.2124 647.624H75.9404C75.9404 649.896 76.1164 651.496 76.4684 652.424C76.8524 653.32 77.5884 653.768 78.6764 653.768C79.5404 653.768 80.1644 653.48 80.5484 652.904C80.9644 652.296 81.2204 651.464 81.3164 650.408C81.4124 649.32 81.4604 647.736 81.4604 645.656C81.4604 643.48 81.2524 641.832 80.8364 640.712C80.4204 639.56 79.6204 638.984 78.4364 638.984C76.8044 638.984 75.7804 640.168 75.3644 642.536H68.4524L69.1724 620.12H87.3164V626.84H75.6044L75.1724 634.856C75.5244 634.344 76.2604 633.912 77.3804 633.56C78.5324 633.176 79.7004 632.984 80.8844 632.984C83.5084 632.984 85.5084 634.072 86.8844 636.248C88.2924 638.424 88.9964 641.496 88.9964 645.464C88.9964 648.568 88.7244 651.144 88.1804 653.192C87.6364 655.208 86.5964 656.808 85.0604 657.992C83.5244 659.144 81.3004 659.72 78.3884 659.72ZM101.802 642.2C98.5703 642.2 96.2503 641.368 94.8423 639.704C93.4343 638.04 92.7303 635.432 92.7303 631.88V630.152C92.7303 626.568 93.4023 623.992 94.7463 622.424C96.1223 620.856 98.4743 620.072 101.802 620.072C105.13 620.072 107.482 620.856 108.858 622.424C110.234 623.96 110.922 626.504 110.922 630.056V631.976C110.922 635.496 110.218 638.088 108.81 639.752C107.402 641.384 105.066 642.2 101.802 642.2ZM118.458 620.12H122.778L110.874 659H106.506L118.458 620.12ZM101.802 637.208C102.602 637.208 103.194 637 103.578 636.584C103.962 636.168 104.202 635.592 104.298 634.856C104.394 634.088 104.442 633 104.442 631.592V630.392C104.442 628.952 104.394 627.896 104.298 627.224C104.202 626.52 103.962 625.992 103.578 625.64C103.226 625.288 102.634 625.112 101.802 625.112C100.97 625.112 100.362 625.288 99.9783 625.64C99.6263 625.992 99.4023 626.52 99.3063 627.224C99.2103 627.896 99.1623 628.936 99.1623 630.344V631.64C99.1623 633.688 99.3223 635.128 99.6423 635.96C99.9623 636.792 100.682 637.208 101.802 637.208ZM127.53 659.048C124.298 659.048 121.978 658.216 120.57 656.552C119.194 654.888 118.506 652.28 118.506 648.728V647C118.506 643.416 119.178 640.84 120.522 639.272C121.898 637.704 124.234 636.92 127.53 636.92C130.858 636.92 133.21 637.704 134.586 639.272C135.962 640.808 136.65 643.352 136.65 646.904V648.776C136.65 652.296 135.946 654.888 134.538 656.552C133.13 658.216 130.794 659.048 127.53 659.048ZM127.53 654.056C128.33 654.056 128.922 653.848 129.306 653.432C129.69 653.016 129.93 652.44 130.026 651.704C130.122 650.936 130.17 649.864 130.17 648.488V647.192C130.17 645.752 130.122 644.696 130.026 644.024C129.93 643.352 129.69 642.84 129.306 642.488C128.954 642.136 128.362 641.96 127.53 641.96C126.698 641.96 126.09 642.136 125.706 642.488C125.354 642.84 125.13 643.368 125.034 644.072C124.938 644.744 124.89 645.784 124.89 647.192V648.488C124.89 650.536 125.05 651.976 125.37 652.808C125.69 653.64 126.41 654.056 127.53 654.056ZM154.013 620.12H167.069C170.493 620.12 173.053 621.096 174.749 623.048C176.445 624.968 177.293 627.752 177.293 631.4C177.293 635.56 176.301 638.456 174.317 640.088C172.365 641.688 169.613 642.488 166.061 642.488H162.605V659H154.013V620.12ZM165.485 636.488C166.989 636.488 167.981 636.088 168.461 635.288C168.973 634.488 169.229 633.144 169.229 631.256C169.229 629.528 168.989 628.248 168.509 627.416C168.029 626.584 167.005 626.168 165.437 626.168H162.605V636.488H165.485ZM181.435 620.12H192.139C196.395 620.12 199.611 620.872 201.787 622.376C203.963 623.88 205.051 626.552 205.051 630.392C205.051 632.984 204.715 635.048 204.043 636.584C203.371 638.12 202.123 639.32 200.299 640.184L205.627 659H196.747L192.475 641.576H190.027V659H181.435V620.12ZM192.427 636.632C194.155 636.632 195.355 636.184 196.027 635.288C196.731 634.36 197.083 632.984 197.083 631.16C197.083 629.4 196.763 628.088 196.123 627.224C195.483 626.328 194.379 625.88 192.811 625.88H190.027V636.632H192.427ZM210.264 620.12H218.856V659H210.264V620.12ZM222.829 620.12H230.173L234.349 646.52L238.237 620.12H246.013L238.909 659H229.837L222.829 620.12ZM253.891 620.12H263.683L270.931 659H263.011L261.715 650.792H256.003L254.659 659H246.547L253.891 620.12ZM260.899 645.656L258.835 630.488L256.771 645.656H260.899ZM276.298 626.504H270.442V620.12H290.746V626.504H284.938V659H276.298V626.504ZM294.169 620.12H311.641V625.976H302.761V635.624H309.529V641.576H302.761V653.192H311.737V659H294.169V620.12ZM338.239 659.576C334.527 659.576 331.759 658.6 329.935 656.648C328.143 654.664 327.183 651.528 327.055 647.24L334.399 646.136C334.431 648.6 334.719 650.376 335.263 651.464C335.839 652.52 336.687 653.048 337.807 653.048C339.247 653.048 339.967 652.104 339.967 650.216C339.967 648.712 339.615 647.416 338.911 646.328C338.239 645.24 337.167 644.072 335.695 642.824L332.335 639.896C330.671 638.488 329.375 637 328.447 635.432C327.551 633.832 327.103 631.944 327.103 629.768C327.103 626.504 328.063 623.992 329.983 622.232C331.935 620.472 334.607 619.592 337.999 619.592C341.679 619.592 344.175 620.664 345.487 622.808C346.831 624.952 347.551 627.56 347.647 630.632L340.255 631.544C340.191 629.528 339.999 628.088 339.679 627.224C339.391 626.328 338.735 625.88 337.711 625.88C336.975 625.88 336.399 626.2 335.983 626.84C335.599 627.448 335.407 628.136 335.407 628.904C335.407 630.216 335.695 631.32 336.271 632.216C336.879 633.112 337.839 634.136 339.151 635.288L342.367 638.12C344.287 639.752 345.775 641.48 346.831 643.304C347.887 645.128 348.415 647.288 348.415 649.784C348.415 651.608 347.983 653.272 347.119 654.776C346.287 656.248 345.103 657.416 343.567 658.28C342.031 659.144 340.255 659.576 338.239 659.576ZM357.672 620.12H367.464L374.712 659H366.792L365.496 650.792H359.784L358.44 659H350.328L357.672 620.12ZM364.68 645.656L362.616 630.488L360.552 645.656H364.68ZM378.638 620.12H387.23V653.192H396.158V659H378.638V620.12ZM399.919 620.12H417.391V625.976H408.511V635.624H415.279V641.576H408.511V653.192H417.487V659H399.919V620.12Z" fill="#1E2947"/>
<path d="M655.952 27.0219C655.6 27.2139 654.672 27.6299 653.168 28.2699C652.912 28.3659 652.512 28.5259 651.968 28.7499C651.424 28.9739 650.976 29.1819 650.624 29.3739V23.4219C654.464 21.4379 656.816 19.9979 657.68 19.1019H663.968V57.9819H655.952V27.0219ZM681.425 58.7019C678.001 58.7019 675.377 57.6939 673.553 55.6779C671.729 53.6619 670.817 50.9579 670.817 47.5659V29.9499C670.817 26.3979 671.697 23.6139 673.457 21.5979C675.249 19.5499 677.905 18.5259 681.425 18.5259C684.945 18.5259 687.585 19.5499 689.345 21.5979C691.105 23.6139 691.985 26.3979 691.985 29.9499V47.5659C691.985 50.9259 691.057 53.6299 689.201 55.6779C687.377 57.6939 684.785 58.7019 681.425 58.7019ZM681.425 51.5499C682.417 51.5499 683.057 51.1339 683.345 50.3019C683.665 49.4699 683.825 48.4939 683.825 47.3739V30.1419C683.825 28.8619 683.681 27.8059 683.393 26.9739C683.137 26.1099 682.481 25.6779 681.425 25.6779C680.369 25.6779 679.697 26.0939 679.409 26.9259C679.153 27.7579 679.025 28.8299 679.025 30.1419V47.3739C679.025 50.1579 679.825 51.5499 681.425 51.5499ZM705.847 41.1819C702.615 41.1819 700.295 40.3499 698.887 38.6859C697.479 37.0219 696.775 34.4139 696.775 30.8619V29.1339C696.775 25.5499 697.447 22.9739 698.791 21.4059C700.167 19.8379 702.519 19.0539 705.847 19.0539C709.175 19.0539 711.527 19.8379 712.903 21.4059C714.279 22.9419 714.967 25.4859 714.967 29.0379V30.9579C714.967 34.4779 714.263 37.0699 712.855 38.7339C711.447 40.3659 709.111 41.1819 705.847 41.1819ZM722.503 19.1019H726.823L714.919 57.9819H710.551L722.503 19.1019ZM705.847 36.1899C706.647 36.1899 707.239 35.9819 707.623 35.5659C708.007 35.1499 708.247 34.5739 708.343 33.8379C708.439 33.0699 708.487 31.9819 708.487 30.5739V29.3739C708.487 27.9339 708.439 26.8779 708.343 26.2059C708.247 25.5019 708.007 24.9739 707.623 24.6219C707.271 24.2699 706.679 24.0939 705.847 24.0939C705.015 24.0939 704.407 24.2699 704.023 24.6219C703.671 24.9739 703.447 25.5019 703.351 26.2059C703.255 26.8779 703.207 27.9179 703.207 29.3259V30.6219C703.207 32.6699 703.367 34.1099 703.687 34.9419C704.007 35.7739 704.727 36.1899 705.847 36.1899ZM731.575 58.0299C728.343 58.0299 726.023 57.1979 724.615 55.5339C723.239 53.8699 722.551 51.2619 722.551 47.7099V45.9819C722.551 42.3979 723.223 39.8219 724.567 38.2539C725.943 36.6859 728.279 35.9019 731.575 35.9019C734.903 35.9019 737.255 36.6859 738.631 38.2539C740.007 39.7899 740.695 42.3339 740.695 45.8859V47.7579C740.695 51.2779 739.991 53.8699 738.583 55.5339C737.175 57.1979 734.839 58.0299 731.575 58.0299ZM731.575 53.0379C732.375 53.0379 732.967 52.8299 733.351 52.4139C733.735 51.9979 733.975 51.4219 734.071 50.6859C734.167 49.9179 734.215 48.8459 734.215 47.4699V46.1739C734.215 44.7339 734.167 43.6779 734.071 43.0059C733.975 42.3339 733.735 41.8219 733.351 41.4699C732.999 41.1179 732.407 40.9419 731.575 40.9419C730.743 40.9419 730.135 41.1179 729.751 41.4699C729.399 41.8219 729.175 42.3499 729.079 43.0539C728.983 43.7259 728.935 44.7659 728.935 46.1739V47.4699C728.935 49.5179 729.095 50.9579 729.415 51.7899C729.735 52.6219 730.455 53.0379 731.575 53.0379ZM761.562 25.4859H755.706V19.1019H776.01V25.4859H770.202V57.9819H761.562V25.4859ZM779.433 19.1019H790.137C794.393 19.1019 797.609 19.8539 799.785 21.3579C801.961 22.8619 803.049 25.5339 803.049 29.3739C803.049 31.9659 802.713 34.0299 802.041 35.5659C801.369 37.1019 800.121 38.3019 798.297 39.1659L803.625 57.9819H794.745L790.473 40.5579H788.025V57.9819H779.433V19.1019ZM790.425 35.6139C792.153 35.6139 793.353 35.1659 794.025 34.2699C794.729 33.3419 795.081 31.9659 795.081 30.1419C795.081 28.3819 794.761 27.0699 794.121 26.2059C793.481 25.3099 792.377 24.8619 790.809 24.8619H788.025V35.6139H790.425ZM808.214 19.1019H825.686V24.9579H816.806V34.6059H823.574V40.5579H816.806V52.1739H825.782V57.9819H808.214V19.1019ZM835.155 19.1019H844.947L852.195 57.9819H844.275L842.979 49.7739H837.267L835.923 57.9819H827.811L835.155 19.1019ZM842.163 44.6379L840.099 29.4699L838.035 44.6379H842.163ZM866.065 58.5579C862.353 58.5579 859.585 57.5819 857.761 55.6299C855.969 53.6459 855.009 50.5099 854.881 46.2219L862.225 45.1179C862.257 47.5819 862.545 49.3579 863.089 50.4459C863.665 51.5019 864.513 52.0299 865.633 52.0299C867.073 52.0299 867.793 51.0859 867.793 49.1979C867.793 47.6939 867.441 46.3979 866.737 45.3099C866.065 44.2219 864.993 43.0539 863.521 41.8059L860.161 38.8779C858.497 37.4699 857.201 35.9819 856.273 34.4139C855.377 32.8139 854.929 30.9259 854.929 28.7499C854.929 25.4859 855.889 22.9739 857.809 21.2139C859.761 19.4539 862.433 18.5739 865.825 18.5739C869.505 18.5739 872.001 19.6459 873.313 21.7899C874.657 23.9339 875.377 26.5419 875.473 29.6139L868.081 30.5259C868.017 28.5099 867.825 27.0699 867.505 26.2059C867.217 25.3099 866.561 24.8619 865.537 24.8619C864.801 24.8619 864.225 25.1819 863.809 25.8219C863.425 26.4299 863.233 27.1179 863.233 27.8859C863.233 29.1979 863.521 30.3019 864.097 31.1979C864.705 32.0939 865.665 33.1179 866.977 34.2699L870.193 37.1019C872.113 38.7339 873.601 40.4619 874.657 42.2859C875.713 44.1099 876.241 46.2699 876.241 48.7659C876.241 50.5899 875.809 52.2539 874.945 53.7579C874.113 55.2299 872.929 56.3979 871.393 57.2619C869.857 58.1259 868.081 58.5579 866.065 58.5579ZM891.633 58.5579C888.721 58.5579 886.417 58.0939 884.721 57.1659C883.025 56.2059 881.825 54.8139 881.121 52.9899C880.449 51.1339 880.113 48.7819 880.113 45.9339V19.1019H888.609V47.2299C888.609 48.7979 888.801 50.0459 889.185 50.9739C889.601 51.9019 890.417 52.3659 891.633 52.3659C892.849 52.3659 893.649 51.9019 894.033 50.9739C894.417 50.0459 894.609 48.7979 894.609 47.2299V19.1019H903.153V45.9339C903.153 48.7819 902.801 51.1339 902.097 52.9899C901.393 54.8139 900.193 56.2059 898.497 57.1659C896.833 58.0939 894.545 58.5579 891.633 58.5579ZM908.62 19.1019H919.324C923.58 19.1019 926.796 19.8539 928.972 21.3579C931.148 22.8619 932.236 25.5339 932.236 29.3739C932.236 31.9659 931.9 34.0299 931.228 35.5659C930.556 37.1019 929.308 38.3019 927.484 39.1659L932.812 57.9819H923.932L919.66 40.5579H917.212V57.9819H908.62V19.1019ZM919.612 35.6139C921.34 35.6139 922.54 35.1659 923.212 34.2699C923.916 33.3419 924.268 31.9659 924.268 30.1419C924.268 28.3819 923.948 27.0699 923.308 26.2059C922.668 25.3099 921.564 24.8619 919.996 24.8619H917.212V35.6139H919.612ZM941.407 42.0939L934.015 19.1019H942.127L945.823 31.3899L949.135 19.1019H956.911L949.663 42.0939V57.9819H941.407V42.0939Z" fill="#1E2947"/>
<path d="M742.465 94.6909V82.9869C742.465 82.5576 742.465 82.1189 742.465 81.6709C742.484 81.2043 742.503 80.7283 742.521 80.2429C741.887 80.8216 741.177 81.3256 740.393 81.7549C739.609 82.1843 738.807 82.4829 737.985 82.6509L737.481 79.4029C737.911 79.3656 738.387 79.2443 738.909 79.0389C739.451 78.8149 739.992 78.5536 740.533 78.2549C741.093 77.9376 741.597 77.6109 742.045 77.2749C742.512 76.9203 742.867 76.5656 743.109 76.2109H746.245V94.6909H742.465ZM752.49 90.4069C753.087 90.4069 753.582 90.5563 753.974 90.8549C754.366 91.1349 754.664 91.5176 754.87 92.0029C755.075 92.4696 755.178 92.9923 755.178 93.5709C755.178 94.3363 755.019 95.0736 754.702 95.7829C754.403 96.4923 753.983 97.1269 753.442 97.6869C752.9 98.2469 752.284 98.6856 751.594 99.0029L749.914 97.6869C750.436 97.4816 750.903 97.2296 751.314 96.9309C751.743 96.6323 752.107 96.2963 752.406 95.9229C752.704 95.5496 752.919 95.1669 753.05 94.7749L752.91 94.6909C752.816 94.7469 752.704 94.7936 752.574 94.8309C752.443 94.8869 752.256 94.9149 752.014 94.9149C751.715 94.9149 751.416 94.8403 751.118 94.6909C750.819 94.5229 750.567 94.2896 750.362 93.9909C750.156 93.6736 750.054 93.2816 750.054 92.8149C750.054 92.3109 750.166 91.8816 750.39 91.5269C750.614 91.1723 750.912 90.9016 751.286 90.7149C751.659 90.5096 752.06 90.4069 752.49 90.4069ZM764.967 94.9709C762.596 94.9709 760.767 94.1683 759.479 92.5629C758.209 90.9576 757.575 88.5869 757.575 85.4509C757.575 82.3149 758.209 79.9443 759.479 78.3389C760.767 76.7336 762.596 75.9309 764.967 75.9309C767.337 75.9309 769.157 76.7336 770.427 78.3389C771.715 79.9443 772.359 82.3149 772.359 85.4509C772.359 88.5869 771.715 90.9576 770.427 92.5629C769.157 94.1683 767.337 94.9709 764.967 94.9709ZM764.967 91.8629C765.769 91.8629 766.423 91.6389 766.927 91.1909C767.449 90.7243 767.841 90.0243 768.103 89.0909C768.364 88.1389 768.495 86.9256 768.495 85.4509C768.495 83.9763 768.364 82.7723 768.103 81.8389C767.841 80.8869 767.449 80.1869 766.927 79.7389C766.423 79.2723 765.769 79.0389 764.967 79.0389C764.164 79.0389 763.501 79.2723 762.979 79.7389C762.456 80.1869 762.064 80.8869 761.803 81.8389C761.56 82.7723 761.439 83.9763 761.439 85.4509C761.439 86.9256 761.56 88.1389 761.803 89.0909C762.064 90.0243 762.456 90.7243 762.979 91.1909C763.501 91.6389 764.164 91.8629 764.967 91.8629ZM782.767 94.9709C780.397 94.9709 778.567 94.1683 777.279 92.5629C776.01 90.9576 775.375 88.5869 775.375 85.4509C775.375 82.3149 776.01 79.9443 777.279 78.3389C778.567 76.7336 780.397 75.9309 782.767 75.9309C785.138 75.9309 786.958 76.7336 788.227 78.3389C789.515 79.9443 790.159 82.3149 790.159 85.4509C790.159 88.5869 789.515 90.9576 788.227 92.5629C786.958 94.1683 785.138 94.9709 782.767 94.9709ZM782.767 91.8629C783.57 91.8629 784.223 91.6389 784.727 91.1909C785.25 90.7243 785.642 90.0243 785.903 89.0909C786.165 88.1389 786.295 86.9256 786.295 85.4509C786.295 83.9763 786.165 82.7723 785.903 81.8389C785.642 80.8869 785.25 80.1869 784.727 79.7389C784.223 79.2723 783.57 79.0389 782.767 79.0389C781.965 79.0389 781.302 79.2723 780.779 79.7389C780.257 80.1869 779.865 80.8869 779.603 81.8389C779.361 82.7723 779.239 83.9763 779.239 85.4509C779.239 86.9256 779.361 88.1389 779.603 89.0909C779.865 90.0243 780.257 90.7243 780.779 91.1909C781.302 91.6389 781.965 91.8629 782.767 91.8629ZM800.568 94.9709C798.197 94.9709 796.368 94.1683 795.08 92.5629C793.811 90.9576 793.176 88.5869 793.176 85.4509C793.176 82.3149 793.811 79.9443 795.08 78.3389C796.368 76.7336 798.197 75.9309 800.568 75.9309C802.939 75.9309 804.759 76.7336 806.028 78.3389C807.316 79.9443 807.96 82.3149 807.96 85.4509C807.96 88.5869 807.316 90.9576 806.028 92.5629C804.759 94.1683 802.939 94.9709 800.568 94.9709ZM800.568 91.8629C801.371 91.8629 802.024 91.6389 802.528 91.1909C803.051 90.7243 803.443 90.0243 803.704 89.0909C803.965 88.1389 804.096 86.9256 804.096 85.4509C804.096 83.9763 803.965 82.7723 803.704 81.8389C803.443 80.8869 803.051 80.1869 802.528 79.7389C802.024 79.2723 801.371 79.0389 800.568 79.0389C799.765 79.0389 799.103 79.2723 798.58 79.7389C798.057 80.1869 797.665 80.8869 797.404 81.8389C797.161 82.7723 797.04 83.9763 797.04 85.4509C797.04 86.9256 797.161 88.1389 797.404 89.0909C797.665 90.0243 798.057 90.7243 798.58 91.1909C799.103 91.6389 799.765 91.8629 800.568 91.8629ZM812.947 90.4069C813.544 90.4069 814.039 90.5563 814.431 90.8549C814.823 91.1349 815.121 91.5176 815.327 92.0029C815.532 92.4696 815.635 92.9923 815.635 93.5709C815.635 94.3363 815.476 95.0736 815.159 95.7829C814.86 96.4923 814.44 97.1269 813.899 97.6869C813.357 98.2469 812.741 98.6856 812.051 99.0029L810.371 97.6869C810.893 97.4816 811.36 97.2296 811.771 96.9309C812.2 96.6323 812.564 96.2963 812.863 95.9229C813.161 95.5496 813.376 95.1669 813.507 94.7749L813.367 94.6909C813.273 94.7469 813.161 94.7936 813.031 94.8309C812.9 94.8869 812.713 94.9149 812.471 94.9149C812.172 94.9149 811.873 94.8403 811.575 94.6909C811.276 94.5229 811.024 94.2896 810.819 93.9909C810.613 93.6736 810.511 93.2816 810.511 92.8149C810.511 92.3109 810.623 91.8816 810.847 91.5269C811.071 91.1723 811.369 90.9016 811.743 90.7149C812.116 90.5096 812.517 90.4069 812.947 90.4069ZM825.424 94.9709C823.053 94.9709 821.224 94.1683 819.936 92.5629C818.666 90.9576 818.032 88.5869 818.032 85.4509C818.032 82.3149 818.666 79.9443 819.936 78.3389C821.224 76.7336 823.053 75.9309 825.424 75.9309C827.794 75.9309 829.614 76.7336 830.884 78.3389C832.172 79.9443 832.816 82.3149 832.816 85.4509C832.816 88.5869 832.172 90.9576 830.884 92.5629C829.614 94.1683 827.794 94.9709 825.424 94.9709ZM825.424 91.8629C826.226 91.8629 826.88 91.6389 827.384 91.1909C827.906 90.7243 828.298 90.0243 828.56 89.0909C828.821 88.1389 828.952 86.9256 828.952 85.4509C828.952 83.9763 828.821 82.7723 828.56 81.8389C828.298 80.8869 827.906 80.1869 827.384 79.7389C826.88 79.2723 826.226 79.0389 825.424 79.0389C824.621 79.0389 823.958 79.2723 823.436 79.7389C822.913 80.1869 822.521 80.8869 822.26 81.8389C822.017 82.7723 821.896 83.9763 821.896 85.4509C821.896 86.9256 822.017 88.1389 822.26 89.0909C822.521 90.0243 822.913 90.7243 823.436 91.1909C823.958 91.6389 824.621 91.8629 825.424 91.8629ZM843.224 94.9709C840.854 94.9709 839.024 94.1683 837.736 92.5629C836.467 90.9576 835.832 88.5869 835.832 85.4509C835.832 82.3149 836.467 79.9443 837.736 78.3389C839.024 76.7336 840.854 75.9309 843.224 75.9309C845.595 75.9309 847.415 76.7336 848.684 78.3389C849.972 79.9443 850.616 82.3149 850.616 85.4509C850.616 88.5869 849.972 90.9576 848.684 92.5629C847.415 94.1683 845.595 94.9709 843.224 94.9709ZM843.224 91.8629C844.027 91.8629 844.68 91.6389 845.184 91.1909C845.707 90.7243 846.099 90.0243 846.36 89.0909C846.622 88.1389 846.752 86.9256 846.752 85.4509C846.752 83.9763 846.622 82.7723 846.36 81.8389C846.099 80.8869 845.707 80.1869 845.184 79.7389C844.68 79.2723 844.027 79.0389 843.224 79.0389C842.422 79.0389 841.759 79.2723 841.236 79.7389C840.714 80.1869 840.322 80.8869 840.06 81.8389C839.818 82.7723 839.696 83.9763 839.696 85.4509C839.696 86.9256 839.818 88.1389 840.06 89.0909C840.322 90.0243 840.714 90.7243 841.236 91.1909C841.759 91.6389 842.422 91.8629 843.224 91.8629ZM861.025 94.9709C858.654 94.9709 856.825 94.1683 855.537 92.5629C854.268 90.9576 853.633 88.5869 853.633 85.4509C853.633 82.3149 854.268 79.9443 855.537 78.3389C856.825 76.7336 858.654 75.9309 861.025 75.9309C863.396 75.9309 865.216 76.7336 866.485 78.3389C867.773 79.9443 868.417 82.3149 868.417 85.4509C868.417 88.5869 867.773 90.9576 866.485 92.5629C865.216 94.1683 863.396 94.9709 861.025 94.9709ZM861.025 91.8629C861.828 91.8629 862.481 91.6389 862.985 91.1909C863.508 90.7243 863.9 90.0243 864.161 89.0909C864.422 88.1389 864.553 86.9256 864.553 85.4509C864.553 83.9763 864.422 82.7723 864.161 81.8389C863.9 80.8869 863.508 80.1869 862.985 79.7389C862.481 79.2723 861.828 79.0389 861.025 79.0389C860.222 79.0389 859.56 79.2723 859.037 79.7389C858.514 80.1869 858.122 80.8869 857.861 81.8389C857.618 82.7723 857.497 83.9763 857.497 85.4509C857.497 86.9256 857.618 88.1389 857.861 89.0909C858.122 90.0243 858.514 90.7243 859.037 91.1909C859.56 91.6389 860.222 91.8629 861.025 91.8629Z" fill="#8648E5"/>
<path d="M779.81 547.026V544.394C781.49 543.274 782.909 542.257 784.066 541.342C785.242 540.409 786.185 539.55 786.894 538.766C787.622 537.963 788.145 537.207 788.462 536.498C788.798 535.789 788.966 535.079 788.966 534.37C788.966 533.511 788.705 532.811 788.182 532.27C787.66 531.71 786.922 531.43 785.97 531.43C784.925 531.43 784.104 531.785 783.506 532.494C782.928 533.203 782.61 534.211 782.554 535.518L779.222 534.258C779.316 532.989 779.652 531.915 780.23 531.038C780.828 530.142 781.63 529.461 782.638 528.994C783.665 528.509 784.85 528.266 786.194 528.266C787.314 528.266 788.285 528.425 789.106 528.742C789.946 529.059 790.646 529.498 791.206 530.058C791.766 530.599 792.177 531.225 792.438 531.934C792.718 532.643 792.858 533.381 792.858 534.146C792.858 535.341 792.56 536.47 791.962 537.534C791.384 538.598 790.488 539.653 789.274 540.698C788.061 541.743 786.521 542.845 784.654 544.002V544.03C784.934 544.011 785.27 543.993 785.662 543.974C786.073 543.955 786.493 543.946 786.922 543.946C787.352 543.927 787.725 543.918 788.042 543.918H793.138V547.026H779.81ZM798.425 542.742C799.023 542.742 799.517 542.891 799.909 543.19C800.301 543.47 800.6 543.853 800.805 544.338C801.011 544.805 801.113 545.327 801.113 545.906C801.113 546.671 800.955 547.409 800.637 548.118C800.339 548.827 799.919 549.462 799.377 550.022C798.836 550.582 798.22 551.021 797.529 551.338L795.849 550.022C796.372 549.817 796.839 549.565 797.249 549.266C797.679 548.967 798.043 548.631 798.341 548.258C798.64 547.885 798.855 547.502 798.985 547.11L798.845 547.026C798.752 547.082 798.64 547.129 798.509 547.166C798.379 547.222 798.192 547.25 797.949 547.25C797.651 547.25 797.352 547.175 797.053 547.026C796.755 546.858 796.503 546.625 796.297 546.326C796.092 546.009 795.989 545.617 795.989 545.15C795.989 544.646 796.101 544.217 796.325 543.862C796.549 543.507 796.848 543.237 797.221 543.05C797.595 542.845 797.996 542.742 798.425 542.742ZM810.416 547.306C808.792 547.306 807.42 546.97 806.3 546.298C805.199 545.626 804.294 544.599 803.584 543.218L807.056 541.482C807.299 542.303 807.682 542.966 808.204 543.47C808.727 543.974 809.492 544.226 810.5 544.226C811.191 544.226 811.779 544.105 812.264 543.862C812.75 543.619 813.123 543.265 813.384 542.798C813.664 542.331 813.804 541.762 813.804 541.09C813.804 540.418 813.674 539.858 813.412 539.41C813.17 538.943 812.815 538.598 812.348 538.374C811.882 538.131 811.294 538.01 810.584 538.01C810.099 538.01 809.642 538.057 809.212 538.15C808.802 538.243 808.428 538.393 808.092 538.598C807.756 538.785 807.458 539.037 807.196 539.354L804.172 538.794L805.32 528.546H816.492V531.654H808.232L807.672 536.162L807.588 536.526H807.644C808.036 536.078 808.568 535.733 809.24 535.49C809.931 535.247 810.715 535.126 811.592 535.126C812.806 535.126 813.842 535.369 814.7 535.854C815.559 536.339 816.222 537.021 816.688 537.898C817.155 538.757 817.388 539.746 817.388 540.866C817.388 541.93 817.211 542.873 816.856 543.694C816.502 544.497 815.998 545.169 815.344 545.71C814.71 546.233 813.972 546.634 813.132 546.914C812.292 547.175 811.387 547.306 810.416 547.306ZM827.609 547.306C825.238 547.306 823.409 546.503 822.121 544.898C820.852 543.293 820.217 540.922 820.217 537.786C820.217 534.65 820.852 532.279 822.121 530.674C823.409 529.069 825.238 528.266 827.609 528.266C829.98 528.266 831.8 529.069 833.069 530.674C834.357 532.279 835.001 534.65 835.001 537.786C835.001 540.922 834.357 543.293 833.069 544.898C831.8 546.503 829.98 547.306 827.609 547.306ZM827.609 544.198C828.412 544.198 829.065 543.974 829.569 543.526C830.092 543.059 830.484 542.359 830.745 541.426C831.006 540.474 831.137 539.261 831.137 537.786C831.137 536.311 831.006 535.107 830.745 534.174C830.484 533.222 830.092 532.522 829.569 532.074C829.065 531.607 828.412 531.374 827.609 531.374C826.806 531.374 826.144 531.607 825.621 532.074C825.098 532.522 824.706 533.222 824.445 534.174C824.202 535.107 824.081 536.311 824.081 537.786C824.081 539.261 824.202 540.474 824.445 541.426C824.706 542.359 825.098 543.059 825.621 543.526C826.144 543.974 826.806 544.198 827.609 544.198ZM845.41 547.306C843.039 547.306 841.21 546.503 839.922 544.898C838.653 543.293 838.018 540.922 838.018 537.786C838.018 534.65 838.653 532.279 839.922 530.674C841.21 529.069 843.039 528.266 845.41 528.266C847.781 528.266 849.601 529.069 850.87 530.674C852.158 532.279 852.802 534.65 852.802 537.786C852.802 540.922 852.158 543.293 850.87 544.898C849.601 546.503 847.781 547.306 845.41 547.306ZM845.41 544.198C846.213 544.198 846.866 543.974 847.37 543.526C847.893 543.059 848.285 542.359 848.546 541.426C848.807 540.474 848.938 539.261 848.938 537.786C848.938 536.311 848.807 535.107 848.546 534.174C848.285 533.222 847.893 532.522 847.37 532.074C846.866 531.607 846.213 531.374 845.41 531.374C844.607 531.374 843.945 531.607 843.422 532.074C842.899 532.522 842.507 533.222 842.246 534.174C842.003 535.107 841.882 536.311 841.882 537.786C841.882 539.261 842.003 540.474 842.246 541.426C842.507 542.359 842.899 543.059 843.422 543.526C843.945 543.974 844.607 544.198 845.41 544.198ZM857.788 542.742C858.386 542.742 858.88 542.891 859.272 543.19C859.664 543.47 859.963 543.853 860.168 544.338C860.374 544.805 860.476 545.327 860.476 545.906C860.476 546.671 860.318 547.409 860 548.118C859.702 548.827 859.282 549.462 858.74 550.022C858.199 550.582 857.583 551.021 856.892 551.338L855.212 550.022C855.735 549.817 856.202 549.565 856.612 549.266C857.042 548.967 857.406 548.631 857.704 548.258C858.003 547.885 858.218 547.502 858.348 547.11L858.208 547.026C858.115 547.082 858.003 547.129 857.872 547.166C857.742 547.222 857.555 547.25 857.312 547.25C857.014 547.25 856.715 547.175 856.416 547.026C856.118 546.858 855.866 546.625 855.66 546.326C855.455 546.009 855.352 545.617 855.352 545.15C855.352 544.646 855.464 544.217 855.688 543.862C855.912 543.507 856.211 543.237 856.584 543.05C856.958 542.845 857.359 542.742 857.788 542.742ZM870.265 547.306C867.895 547.306 866.065 546.503 864.777 544.898C863.508 543.293 862.873 540.922 862.873 537.786C862.873 534.65 863.508 532.279 864.777 530.674C866.065 529.069 867.895 528.266 870.265 528.266C872.636 528.266 874.456 529.069 875.725 530.674C877.013 532.279 877.657 534.65 877.657 537.786C877.657 540.922 877.013 543.293 875.725 544.898C874.456 546.503 872.636 547.306 870.265 547.306ZM870.265 544.198C871.068 544.198 871.721 543.974 872.225 543.526C872.748 543.059 873.14 542.359 873.401 541.426C873.663 540.474 873.793 539.261 873.793 537.786C873.793 536.311 873.663 535.107 873.401 534.174C873.14 533.222 872.748 532.522 872.225 532.074C871.721 531.607 871.068 531.374 870.265 531.374C869.463 531.374 868.8 531.607 868.277 532.074C867.755 532.522 867.363 533.222 867.101 534.174C866.859 535.107 866.737 536.311 866.737 537.786C866.737 539.261 866.859 540.474 867.101 541.426C867.363 542.359 867.755 543.059 868.277 543.526C868.8 543.974 869.463 544.198 870.265 544.198ZM888.066 547.306C885.695 547.306 883.866 546.503 882.578 544.898C881.309 543.293 880.674 540.922 880.674 537.786C880.674 534.65 881.309 532.279 882.578 530.674C883.866 529.069 885.695 528.266 888.066 528.266C890.437 528.266 892.257 529.069 893.526 530.674C894.814 532.279 895.458 534.65 895.458 537.786C895.458 540.922 894.814 543.293 893.526 544.898C892.257 546.503 890.437 547.306 888.066 547.306ZM888.066 544.198C888.869 544.198 889.522 543.974 890.026 543.526C890.549 543.059 890.941 542.359 891.202 541.426C891.463 540.474 891.594 539.261 891.594 537.786C891.594 536.311 891.463 535.107 891.202 534.174C890.941 533.222 890.549 532.522 890.026 532.074C889.522 531.607 888.869 531.374 888.066 531.374C887.263 531.374 886.601 531.607 886.078 532.074C885.555 532.522 885.163 533.222 884.902 534.174C884.659 535.107 884.538 536.311 884.538 537.786C884.538 539.261 884.659 540.474 884.902 541.426C885.163 542.359 885.555 543.059 886.078 543.526C886.601 543.974 887.263 544.198 888.066 544.198ZM905.867 547.306C903.496 547.306 901.667 546.503 900.379 544.898C899.11 543.293 898.475 540.922 898.475 537.786C898.475 534.65 899.11 532.279 900.379 530.674C901.667 529.069 903.496 528.266 905.867 528.266C908.238 528.266 910.058 529.069 911.327 530.674C912.615 532.279 913.259 534.65 913.259 537.786C913.259 540.922 912.615 543.293 911.327 544.898C910.058 546.503 908.238 547.306 905.867 547.306ZM905.867 544.198C906.67 544.198 907.323 543.974 907.827 543.526C908.35 543.059 908.742 542.359 909.003 541.426C909.264 540.474 909.395 539.261 909.395 537.786C909.395 536.311 909.264 535.107 909.003 534.174C908.742 533.222 908.35 532.522 907.827 532.074C907.323 531.607 906.67 531.374 905.867 531.374C905.064 531.374 904.402 531.607 903.879 532.074C903.356 532.522 902.964 533.222 902.703 534.174C902.46 535.107 902.339 536.311 902.339 537.786C902.339 539.261 902.46 540.474 902.703 541.426C902.964 542.359 903.356 543.059 903.879 543.526C904.402 543.974 905.064 544.198 905.867 544.198Z" fill="#8648E5"/>
<path d="M741.845 512.303H762.149V506.015H750.773L757.877 495.407C760.661 491.327 763.205 487.871 763.205 483.167C763.205 476.735 759.605 472.895 752.645 472.895C744.821 472.895 741.749 478.031 741.749 484.895V486.959H749.525V485.039C749.525 482.063 750.149 479.711 752.789 479.711C754.325 479.711 755.285 480.815 755.285 483.023C755.285 486.383 753.221 489.167 751.157 492.335L741.845 506.639V512.303ZM776.773 513.023C785.893 513.023 787.381 507.071 787.381 498.767C787.381 490.415 784.213 485.711 778.261 486.335C776.197 486.527 774.181 487.295 773.557 488.159L773.989 480.143H785.701V473.423H767.557L766.837 495.839H773.749C774.181 493.391 775.189 492.287 776.821 492.287C779.413 492.287 779.845 495.167 779.845 498.959C779.845 504.047 779.749 506.975 777.301 507.071C774.853 507.215 774.325 505.391 774.325 500.927H766.597C766.597 508.175 768.229 513.023 776.773 513.023ZM800.187 495.503C806.859 495.503 809.307 492.143 809.307 485.279V483.359C809.307 476.351 806.907 473.375 800.187 473.375C793.467 473.375 791.115 476.399 791.115 483.455V485.183C791.115 492.095 793.563 495.503 800.187 495.503ZM804.891 512.303H809.259L821.163 473.423H816.843L804.891 512.303ZM800.187 490.511C797.739 490.511 797.547 488.543 797.547 484.943V483.647C797.547 479.999 797.643 478.415 800.187 478.415C802.779 478.415 802.827 480.047 802.827 483.695V484.895C802.827 488.495 802.683 490.511 800.187 490.511ZM825.915 512.351C832.539 512.351 835.035 508.991 835.035 502.079V500.207C835.035 493.199 832.635 490.223 825.915 490.223C819.195 490.223 816.891 493.295 816.891 500.303V502.031C816.891 508.943 819.291 512.351 825.915 512.351ZM825.915 507.359C823.467 507.359 823.275 505.391 823.275 501.791V500.495C823.275 496.847 823.371 495.263 825.915 495.263C828.507 495.263 828.555 496.847 828.555 500.495V501.791C828.555 505.343 828.411 507.359 825.915 507.359ZM855.902 512.303H864.542V479.807H870.35V473.423H850.046V479.807H855.902V512.303ZM873.773 512.303H891.341V506.495H882.365V494.879H889.133V488.927H882.365V479.279H891.245V473.423H873.773V512.303ZM893.369 512.303H901.481L902.825 504.095H908.537L909.833 512.303H917.753L910.505 473.423H900.713L893.369 512.303ZM903.593 498.959L905.657 483.791L907.721 498.959H903.593ZM921.535 512.303H927.727L928.303 486.239L933.103 512.303H938.527L943.039 486.431L943.759 512.303H949.855L949.183 473.423H940.303L935.695 496.031L931.423 473.423H922.207L921.535 512.303Z" fill="#1E2947"/>
<path d="M32.3442 195.029V190.689H23.3282V188.169C23.4215 187.982 23.5522 187.758 23.7202 187.497C23.9069 187.217 24.1122 186.899 24.3362 186.545L31.2242 176.549H35.8442V187.889H38.8402V190.689H35.8442V195.029H32.3442ZM26.6322 187.889H32.3722V181.785C32.3722 181.393 32.3815 180.973 32.4002 180.525C32.4189 180.077 32.4375 179.638 32.4562 179.209H32.4002C32.1949 179.619 31.9429 180.067 31.6442 180.553C31.3642 181.019 31.1029 181.439 30.8602 181.813L26.9962 187.357C26.9402 187.45 26.8749 187.543 26.8002 187.637C26.7442 187.711 26.6882 187.795 26.6322 187.889ZM43.5155 190.745C44.1129 190.745 44.6075 190.894 44.9995 191.193C45.3915 191.473 45.6902 191.855 45.8955 192.341C46.1009 192.807 46.2035 193.33 46.2035 193.909C46.2035 194.674 46.0449 195.411 45.7275 196.121C45.4289 196.83 45.0089 197.465 44.4675 198.025C43.9262 198.585 43.3102 199.023 42.6195 199.341L40.9395 198.025C41.4622 197.819 41.9289 197.567 42.3395 197.269C42.7689 196.97 43.1329 196.634 43.4315 196.261C43.7302 195.887 43.9449 195.505 44.0755 195.113L43.9355 195.029C43.8422 195.085 43.7302 195.131 43.5995 195.169C43.4689 195.225 43.2822 195.253 43.0395 195.253C42.7409 195.253 42.4422 195.178 42.1435 195.029C41.8449 194.861 41.5929 194.627 41.3875 194.329C41.1822 194.011 41.0795 193.619 41.0795 193.153C41.0795 192.649 41.1915 192.219 41.4155 191.865C41.6395 191.51 41.9382 191.239 42.3115 191.053C42.6849 190.847 43.0862 190.745 43.5155 190.745ZM55.9924 195.309C53.6217 195.309 51.7924 194.506 50.5044 192.901C49.235 191.295 48.6004 188.925 48.6004 185.789C48.6004 182.653 49.235 180.282 50.5044 178.677C51.7924 177.071 53.6217 176.269 55.9924 176.269C58.363 176.269 60.183 177.071 61.4524 178.677C62.7404 180.282 63.3844 182.653 63.3844 185.789C63.3844 188.925 62.7404 191.295 61.4524 192.901C60.183 194.506 58.363 195.309 55.9924 195.309ZM55.9924 192.201C56.795 192.201 57.4484 191.977 57.9524 191.529C58.475 191.062 58.867 190.362 59.1284 189.429C59.3897 188.477 59.5204 187.263 59.5204 185.789C59.5204 184.314 59.3897 183.11 59.1284 182.177C58.867 181.225 58.475 180.525 57.9524 180.077C57.4484 179.61 56.795 179.377 55.9924 179.377C55.1897 179.377 54.527 179.61 54.0044 180.077C53.4817 180.525 53.0897 181.225 52.8284 182.177C52.5857 183.11 52.4644 184.314 52.4644 185.789C52.4644 187.263 52.5857 188.477 52.8284 189.429C53.0897 190.362 53.4817 191.062 54.0044 191.529C54.527 191.977 55.1897 192.201 55.9924 192.201ZM73.7932 195.309C71.4225 195.309 69.5932 194.506 68.3052 192.901C67.0358 191.295 66.4012 188.925 66.4012 185.789C66.4012 182.653 67.0358 180.282 68.3052 178.677C69.5932 177.071 71.4225 176.269 73.7932 176.269C76.1638 176.269 77.9838 177.071 79.2532 178.677C80.5412 180.282 81.1852 182.653 81.1852 185.789C81.1852 188.925 80.5412 191.295 79.2532 192.901C77.9838 194.506 76.1638 195.309 73.7932 195.309ZM73.7932 192.201C74.5958 192.201 75.2492 191.977 75.7532 191.529C76.2758 191.062 76.6678 190.362 76.9292 189.429C77.1905 188.477 77.3212 187.263 77.3212 185.789C77.3212 184.314 77.1905 183.11 76.9292 182.177C76.6678 181.225 76.2758 180.525 75.7532 180.077C75.2492 179.61 74.5958 179.377 73.7932 179.377C72.9905 179.377 72.3278 179.61 71.8052 180.077C71.2825 180.525 70.8905 181.225 70.6292 182.177C70.3865 183.11 70.2652 184.314 70.2652 185.789C70.2652 187.263 70.3865 188.477 70.6292 189.429C70.8905 190.362 71.2825 191.062 71.8052 191.529C72.3278 191.977 72.9905 192.201 73.7932 192.201ZM91.5939 195.309C89.2233 195.309 87.3939 194.506 86.1059 192.901C84.8366 191.295 84.2019 188.925 84.2019 185.789C84.2019 182.653 84.8366 180.282 86.1059 178.677C87.3939 177.071 89.2233 176.269 91.5939 176.269C93.9646 176.269 95.7846 177.071 97.0539 178.677C98.3419 180.282 98.9859 182.653 98.9859 185.789C98.9859 188.925 98.3419 191.295 97.0539 192.901C95.7846 194.506 93.9646 195.309 91.5939 195.309ZM91.5939 192.201C92.3966 192.201 93.0499 191.977 93.5539 191.529C94.0766 191.062 94.4686 190.362 94.7299 189.429C94.9913 188.477 95.1219 187.263 95.1219 185.789C95.1219 184.314 94.9913 183.11 94.7299 182.177C94.4686 181.225 94.0766 180.525 93.5539 180.077C93.0499 179.61 92.3966 179.377 91.5939 179.377C90.7913 179.377 90.1286 179.61 89.6059 180.077C89.0833 180.525 88.6913 181.225 88.4299 182.177C88.1873 183.11 88.0659 184.314 88.0659 185.789C88.0659 187.263 88.1873 188.477 88.4299 189.429C88.6913 190.362 89.0833 191.062 89.6059 191.529C90.1286 191.977 90.7913 192.201 91.5939 192.201ZM103.973 190.745C104.57 190.745 105.065 190.894 105.457 191.193C105.849 191.473 106.147 191.855 106.353 192.341C106.558 192.807 106.661 193.33 106.661 193.909C106.661 194.674 106.502 195.411 106.185 196.121C105.886 196.83 105.466 197.465 104.925 198.025C104.383 198.585 103.767 199.023 103.077 199.341L101.397 198.025C101.919 197.819 102.386 197.567 102.797 197.269C103.226 196.97 103.59 196.634 103.889 196.261C104.187 195.887 104.402 195.505 104.533 195.113L104.393 195.029C104.299 195.085 104.187 195.131 104.057 195.169C103.926 195.225 103.739 195.253 103.497 195.253C103.198 195.253 102.899 195.178 102.601 195.029C102.302 194.861 102.05 194.627 101.845 194.329C101.639 194.011 101.537 193.619 101.537 193.153C101.537 192.649 101.649 192.219 101.873 191.865C102.097 191.51 102.395 191.239 102.769 191.053C103.142 190.847 103.543 190.745 103.973 190.745ZM116.449 195.309C114.079 195.309 112.249 194.506 110.961 192.901C109.692 191.295 109.057 188.925 109.057 185.789C109.057 182.653 109.692 180.282 110.961 178.677C112.249 177.071 114.079 176.269 116.449 176.269C118.82 176.269 120.64 177.071 121.909 178.677C123.197 180.282 123.841 182.653 123.841 185.789C123.841 188.925 123.197 191.295 121.909 192.901C120.64 194.506 118.82 195.309 116.449 195.309ZM116.449 192.201C117.252 192.201 117.905 191.977 118.409 191.529C118.932 191.062 119.324 190.362 119.585 189.429C119.847 188.477 119.977 187.263 119.977 185.789C119.977 184.314 119.847 183.11 119.585 182.177C119.324 181.225 118.932 180.525 118.409 180.077C117.905 179.61 117.252 179.377 116.449 179.377C115.647 179.377 114.984 179.61 114.461 180.077C113.939 180.525 113.547 181.225 113.285 182.177C113.043 183.11 112.921 184.314 112.921 185.789C112.921 187.263 113.043 188.477 113.285 189.429C113.547 190.362 113.939 191.062 114.461 191.529C114.984 191.977 115.647 192.201 116.449 192.201ZM134.25 195.309C131.88 195.309 130.05 194.506 128.762 192.901C127.493 191.295 126.858 188.925 126.858 185.789C126.858 182.653 127.493 180.282 128.762 178.677C130.05 177.071 131.88 176.269 134.25 176.269C136.621 176.269 138.441 177.071 139.71 178.677C140.998 180.282 141.642 182.653 141.642 185.789C141.642 188.925 140.998 191.295 139.71 192.901C138.441 194.506 136.621 195.309 134.25 195.309ZM134.25 192.201C135.053 192.201 135.706 191.977 136.21 191.529C136.733 191.062 137.125 190.362 137.386 189.429C137.648 188.477 137.778 187.263 137.778 185.789C137.778 184.314 137.648 183.11 137.386 182.177C137.125 181.225 136.733 180.525 136.21 180.077C135.706 179.61 135.053 179.377 134.25 179.377C133.448 179.377 132.785 179.61 132.262 180.077C131.74 180.525 131.348 181.225 131.086 182.177C130.844 183.11 130.722 184.314 130.722 185.789C130.722 187.263 130.844 188.477 131.086 189.429C131.348 190.362 131.74 191.062 132.262 191.529C132.785 191.977 133.448 192.201 134.25 192.201ZM152.051 195.309C149.68 195.309 147.851 194.506 146.563 192.901C145.294 191.295 144.659 188.925 144.659 185.789C144.659 182.653 145.294 180.282 146.563 178.677C147.851 177.071 149.68 176.269 152.051 176.269C154.422 176.269 156.242 177.071 157.511 178.677C158.799 180.282 159.443 182.653 159.443 185.789C159.443 188.925 158.799 191.295 157.511 192.901C156.242 194.506 154.422 195.309 152.051 195.309ZM152.051 192.201C152.854 192.201 153.507 191.977 154.011 191.529C154.534 191.062 154.926 190.362 155.187 189.429C155.448 188.477 155.579 187.263 155.579 185.789C155.579 184.314 155.448 183.11 155.187 182.177C154.926 181.225 154.534 180.525 154.011 180.077C153.507 179.61 152.854 179.377 152.051 179.377C151.248 179.377 150.586 179.61 150.063 180.077C149.54 180.525 149.148 181.225 148.887 182.177C148.644 183.11 148.523 184.314 148.523 185.789C148.523 187.263 148.644 188.477 148.887 189.429C149.148 190.362 149.54 191.062 150.063 191.529C150.586 191.977 151.248 192.201 152.051 192.201Z" fill="#8648E5"/>
<path d="M13.2677 151.691H20.7557V142.955H24.3557V137.003H20.7557V112.811H11.4437L1.31572 137.051V142.955H13.2677V151.691ZM7.41172 137.003L13.2677 120.827V137.003H7.41172ZM38.4876 152.411C45.3996 152.411 49.0476 147.803 49.0476 141.275V123.659C49.0476 116.843 45.7356 112.235 38.4876 112.235C31.1916 112.235 27.8796 116.843 27.8796 123.659V141.275C27.8796 147.899 31.4796 152.411 38.4876 152.411ZM38.4876 145.259C36.2796 145.259 36.0876 142.571 36.0876 141.083V123.851C36.0876 122.267 36.0396 119.387 38.4876 119.387C40.8876 119.387 40.8876 122.267 40.8876 123.851V141.083C40.8876 142.571 40.7436 145.259 38.4876 145.259ZM62.9102 134.891C69.5822 134.891 72.0302 131.531 72.0302 124.667V122.747C72.0302 115.739 69.6302 112.763 62.9102 112.763C56.1902 112.763 53.8382 115.787 53.8382 122.843V124.571C53.8382 131.483 56.2862 134.891 62.9102 134.891ZM67.6142 151.691H71.9822L83.8862 112.811H79.5662L67.6142 151.691ZM62.9102 129.899C60.4622 129.899 60.2702 127.931 60.2702 124.331V123.035C60.2702 119.387 60.3662 117.803 62.9102 117.803C65.5022 117.803 65.5502 119.435 65.5502 123.083V124.283C65.5502 127.883 65.4062 129.899 62.9102 129.899ZM88.6382 151.739C95.2622 151.739 97.7582 148.379 97.7582 141.467V139.595C97.7582 132.587 95.3582 129.611 88.6382 129.611C81.9182 129.611 79.6142 132.683 79.6142 139.691V141.419C79.6142 148.331 82.0142 151.739 88.6382 151.739ZM88.6382 146.747C86.1902 146.747 85.9982 144.779 85.9982 141.179V139.883C85.9982 136.235 86.0942 134.651 88.6382 134.651C91.2302 134.651 91.2782 136.235 91.2782 139.883V141.179C91.2782 144.731 91.1342 146.747 88.6382 146.747ZM115.169 151.691H123.761V112.811H115.169V151.691ZM129.558 151.691H139.494C149.526 151.691 152.454 147.947 152.454 139.211V125.099C152.454 116.459 149.526 112.811 139.398 112.811H129.558V151.691ZM138.15 145.739V118.811H139.446C143.238 118.811 143.622 120.203 143.622 123.611V140.555C143.622 144.059 143.382 145.739 139.494 145.739H138.15ZM168.819 152.267C177.603 152.267 180.579 147.467 180.579 139.451V125.003C180.579 116.987 177.603 112.283 168.819 112.283C160.083 112.283 157.155 116.987 157.155 125.003V139.451C157.155 147.467 160.083 152.267 168.819 152.267ZM168.819 146.171C166.131 146.171 165.939 143.819 165.939 141.611V122.891C165.939 120.587 166.275 118.331 168.819 118.331C171.507 118.331 171.795 120.587 171.795 122.891V141.611C171.795 143.819 171.507 146.171 168.819 146.171Z" fill="#1E2947"/>
<defs>
<clipPath id="clip0_36_935">
<rect width="512" height="512" fill="white" transform="translate(196.908 76.7852)"/>
</clipPath>
</defs>
</svg>
